# xmcd
#
# Track frame offsets:
#	150
#	13164
#	24369
#	38874
#	52675
#	71582
#	88106
#	106383
#	121601
#	133829
#
# Disc length: 2000 seconds
#
# Revision: 1
# Processed by: cddbd v1.5.2PL0 Copyright (c) Steve Scherf et al.
# Submitted via: audiograbber 1.83.01
#
DISCID=7a07ce0a
DTITLE=Various Artist - Pure Country Moods CD 2
DYEAR=2004
DGENRE=Counry and Western
TTITLE0=Lynn Anderson - Sweet Talkin' Man
TTITLE1=Johnny Cash - A Thing Called Love
TTITLE2=John Denver - Take Me Home, Country Roads
TTITLE3=Conway Twitty - Slow Hand
TTITLE4=Elvis Presley - American Trilogy
TTITLE5=Johnny Cash - A Boy Named Sue
TTITLE6=Dr. Hook and The Medicine Show - Sylvia's Mother
TTITLE7=Staple Singers - If You're Ready (Come Go With Me)
TTITLE8=Tammy Wynette - Stand By Your Man
TTITLE9=Kris Kristofferson - Me And Bobby McGee
EXTD=
EXTT0=
EXTT1=
EXTT2=
EXTT3=
EXTT4=
EXTT5=
EXTT6=
EXTT7=
EXTT8=
EXTT9=
PLAYORDER=
